<svg version="1.1" id="Layer_1" xmlns="http://www.w3.org/2000/svg" xmlns:xlink="http://www.w3.org/1999/xlink" x="0px" y="0px"
	 width="100%" viewBox="0 0 512 512" enable-background="new 0 0 512 512" xml:space="preserve">
<path fill="#FFFFFF" opacity="1.000000" stroke="none" 
	d="
M513.000000,280.000000 
	C513.000000,357.593842 513.000000,435.187714 513.000000,513.000000 
	C435.312561,513.000000 357.624939,513.000000 279.625793,512.598572 
	C288.046021,511.128204 296.798370,510.192719 305.487488,508.848206 
	C306.808655,508.643799 308.832397,506.555664 308.849121,505.316040 
	C309.073853,488.681580 308.999634,472.043091 308.999634,454.429565 
	C271.617126,463.741211 234.757080,463.543884 198.190948,452.615936 
	C161.667252,441.700653 130.787811,421.858154 105.166977,393.684204 
	C79.686722,365.664795 63.936699,332.697845 56.477867,295.860504 
	C43.471554,231.625488 65.735771,156.472122 113.575607,112.748016 
	C127.372665,126.562553 141.234665,140.442123 154.645935,153.870392 
	C154.645935,111.811844 154.645935,68.947472 154.645935,26.320511 
	C111.582336,26.320511 68.873192,26.320511 26.703243,26.320511 
	C43.011204,42.614937 59.432816,59.022926 75.248100,74.825089 
	C66.524406,85.433327 58.506962,94.706429 51.024269,104.392624 
	C39.566856,119.224014 30.311098,135.365280 22.714146,152.548523 
	C13.685563,172.969925 7.196442,194.042374 3.945805,216.137894 
	C3.307621,220.475830 1.999269,224.715179 1.000001,229.000000 
	C1.000000,153.072006 1.000000,77.144012 1.000000,1.000000 
	C78.687431,1.000000 156.375061,1.000000 234.374176,1.401486 
	C225.953384,2.871571 217.200485,3.806683 208.510895,5.151054 
	C207.190155,5.355386 205.167542,7.445073 205.150787,8.685412 
	C204.926102,25.321846 205.000351,41.962318 205.000351,59.562313 
	C255.551331,46.909428 304.201385,51.715614 350.082794,75.218773 
	C396.020630,98.750862 429.894806,134.821259 447.404663,183.467148 
	C476.648376,264.712158 459.853058,337.440155 401.005371,403.013672 
	C386.542297,388.495392 372.699951,374.600250 359.192963,361.041779 
	C359.192963,402.756104 359.192963,445.174438 359.192963,487.796204 
	C402.094238,487.796204 444.802643,487.796204 487.902039,487.796204 
	C471.343048,471.269562 455.062805,455.021118 438.906036,438.895905 
	C446.510803,430.099274 454.183807,422.150726 460.782227,413.392548 
	C473.394073,396.652649 484.106018,378.750702 492.342682,359.355743 
	C501.653290,337.431885 508.210510,314.844940 511.032013,291.178009 
	C511.479156,287.427094 512.333740,283.724792 513.000000,280.000000 
z"/>
<path fill="#000000" opacity="1.000000" stroke="none" 
	d="
M1.000001,229.468658 
	C1.999269,224.715179 3.307621,220.475830 3.945805,216.137894 
	C7.196442,194.042374 13.685563,172.969925 22.714146,152.548523 
	C30.311098,135.365280 39.566856,119.224014 51.024269,104.392624 
	C58.506962,94.706429 66.524406,85.433327 75.248100,74.825089 
	C59.432816,59.022926 43.011204,42.614937 26.703243,26.320511 
	C68.873192,26.320511 111.582336,26.320511 154.645935,26.320511 
	C154.645935,68.947472 154.645935,111.811844 154.645935,153.870392 
	C141.234665,140.442123 127.372665,126.562553 113.575607,112.748016 
	C65.735771,156.472122 43.471554,231.625488 56.477867,295.860504 
	C63.936699,332.697845 79.686722,365.664795 105.166977,393.684204 
	C130.787811,421.858154 161.667252,441.700653 198.190948,452.615936 
	C234.757080,463.543884 271.617126,463.741211 308.999634,454.429565 
	C308.999634,472.043091 309.073853,488.681580 308.849121,505.316040 
	C308.832397,506.555664 306.808655,508.643799 305.487488,508.848206 
	C296.798370,510.192719 288.046021,511.128204 279.157166,512.598572 
	C264.645782,513.000000 250.291550,513.000000 235.308868,512.596558 
	C221.551819,510.129364 208.283096,508.706268 195.322983,505.872040 
	C165.972076,499.453339 139.045059,486.918732 114.135269,470.404205 
	C98.248840,459.871948 83.288170,447.875214 70.849541,433.237671 
	C61.266487,421.960541 51.797592,410.533020 43.079491,398.587402 
	C31.456465,382.661438 22.893957,364.881927 16.384594,346.384094 
	C11.500092,332.503632 8.638174,317.903717 5.031609,303.584839 
	C3.484174,297.441193 2.331848,291.197968 1.000001,285.000000 
	C1.000000,266.645782 1.000000,248.291550 1.000001,229.468658 
z"/>
<path fill="#000000" opacity="1.000000" stroke="none" 
	d="
M513.000000,279.531342 
	C512.333740,283.724792 511.479156,287.427094 511.032013,291.178009 
	C508.210510,314.844940 501.653290,337.431885 492.342682,359.355743 
	C484.106018,378.750702 473.394073,396.652649 460.782227,413.392548 
	C454.183807,422.150726 446.510803,430.099274 438.906036,438.895905 
	C455.062805,455.021118 471.343048,471.269562 487.902039,487.796204 
	C444.802643,487.796204 402.094238,487.796204 359.192963,487.796204 
	C359.192963,445.174438 359.192963,402.756104 359.192963,361.041779 
	C372.699951,374.600250 386.542297,388.495392 401.005371,403.013672 
	C459.853058,337.440155 476.648376,264.712158 447.404663,183.467148 
	C429.894806,134.821259 396.020630,98.750862 350.082794,75.218773 
	C304.201385,51.715614 255.551331,46.909428 205.000351,59.562313 
	C205.000351,41.962318 204.926102,25.321846 205.150787,8.685412 
	C205.167542,7.445073 207.190155,5.355386 208.510895,5.151054 
	C217.200485,3.806683 225.953384,2.871571 234.842834,1.401486 
	C249.354233,1.000000 263.708466,1.000000 278.688507,1.401476 
	C287.381653,2.866540 295.473450,3.772581 303.511627,5.023443 
	C327.039368,8.684706 349.270508,16.407772 370.541473,26.964481 
	C390.025665,36.634441 408.085327,48.423855 424.453461,62.850800 
	C438.817108,75.510948 451.990326,89.176826 463.297821,104.667740 
	C474.250031,119.671906 483.723785,135.446960 491.244904,152.488373 
	C501.331604,175.342880 508.365875,198.944565 511.037994,223.819412 
	C511.441254,227.573212 512.333801,231.274445 513.000000,235.000000 
	C513.000000,249.687561 513.000000,264.375122 513.000000,279.531342 
z"/>
<path fill="#FFFFFF" opacity="1.000000" stroke="none" 
	d="
M513.000000,234.531342 
	C512.333801,231.274445 511.441254,227.573212 511.037994,223.819412 
	C508.365875,198.944565 501.331604,175.342880 491.244904,152.488373 
	C483.723785,135.446960 474.250031,119.671906 463.297821,104.667740 
	C451.990326,89.176826 438.817108,75.510948 424.453461,62.850800 
	C408.085327,48.423855 390.025665,36.634441 370.541473,26.964481 
	C349.270508,16.407772 327.039368,8.684706 303.511627,5.023443 
	C295.473450,3.772581 287.381653,2.866540 279.157166,1.401476 
	C356.927032,1.000000 434.854095,1.000000 513.000000,1.000000 
	C513.000000,78.687424 513.000000,156.375061 513.000000,234.531342 
z"/>
<path fill="#FFFFFF" opacity="1.000000" stroke="none" 
	d="
M1.000001,285.468658 
	C2.331848,291.197968 3.484174,297.441193 5.031609,303.584839 
	C8.638174,317.903717 11.500092,332.503632 16.384594,346.384094 
	C22.893957,364.881927 31.456465,382.661438 43.079491,398.587402 
	C51.797592,410.533020 61.266487,421.960541 70.849541,433.237671 
	C83.288170,447.875214 98.248840,459.871948 114.135269,470.404205 
	C139.045059,486.918732 165.972076,499.453339 195.322983,505.872040 
	C208.283096,508.706268 221.551819,510.129364 234.840210,512.596558 
	C157.073914,513.000000 79.147827,513.000000 1.000000,513.000000 
	C1.000000,437.312592 1.000000,361.624939 1.000001,285.468658 
z"/>
</svg>